<svg width="32" height="32" viewBox="0 0 32 32" fill="none" xmlns="http://www.w3.org/2000/svg">
<path d="M7 15H27C27.2652 15 27.5196 15.1054 27.7071 15.2929C27.8946 15.4804 28 15.7348 28 16C28 16.2652 27.8946 16.5196 27.7071 16.7071C27.5196 16.8946 27.2652 17 27 17H7C6.73478 17 6.48043 16.8946 6.29289 16.7071C6.10536 16.5196 6 16.2652 6 16C6 15.7348 6.10536 15.4804 6.29289 15.2929C6.48043 15.1054 6.73478 15 7 15Z" fill="black"/>
<path d="M7.41408 15.9998L15.7081 24.2918C15.8959 24.4796 16.0013 24.7342 16.0013 24.9998C16.0013 25.2653 15.8959 25.52 15.7081 25.7078C15.5203 25.8956 15.2656 26.0011 15.0001 26.0011C14.7345 26.0011 14.4799 25.8956 14.2921 25.7078L5.29208 16.7078C5.19895 16.6149 5.12507 16.5046 5.07465 16.3831C5.02424 16.2616 4.99829 16.1313 4.99829 15.9998C4.99829 15.8683 5.02424 15.738 5.07465 15.6165C5.12507 15.495 5.19895 15.3847 5.29208 15.2918L14.2921 6.2918C14.4799 6.10402 14.7345 5.99854 15.0001 5.99854C15.2656 5.99854 15.5203 6.10402 15.7081 6.2918C15.8959 6.47957 16.0013 6.73425 16.0013 6.9998C16.0013 7.26535 15.8959 7.52003 15.7081 7.7078L7.41408 15.9998Z" fill="black"/>
</svg>
