<svg width="45" height="45" viewBox="0 0 45 45" fill="none" xmlns="http://www.w3.org/2000/svg">
<path d="M26.7188 22.5V19.6875H36.803L33.5784 16.463L35.5669 14.4745L42.1875 21.0938L35.5669 27.713L33.5784 25.7245L36.803 22.5H26.7188ZM23.9062 16.875H21.0938V8.19563L17.8692 11.4202L15.8808 9.43172L22.5 2.8125L29.1192 9.43172L27.1308 11.4202L23.9062 8.19563V16.875ZM23.9062 28.267V25.3125C23.9044 23.8212 23.3112 22.3916 22.2567 21.3371C21.2022 20.2826 19.7725 19.6894 18.2812 19.6875H8.19563L11.4202 16.463L9.43172 14.4745L2.8125 21.0938L9.43172 27.713L11.4202 25.7245L8.19563 22.5H18.2812C19.0269 22.5007 19.7419 22.7973 20.2692 23.3246C20.7964 23.8519 21.093 24.5668 21.0938 25.3125V28.267C19.3865 28.6155 17.8695 29.5855 16.8368 30.989C15.804 32.3924 15.3292 34.1293 15.5044 35.8629C15.6795 37.5966 16.4921 39.2034 17.7846 40.3719C19.0772 41.5405 20.7575 42.1875 22.5 42.1875C24.2425 42.1875 25.9228 41.5405 27.2154 40.3719C28.5079 39.2034 29.3205 37.5966 29.4956 35.8629C29.6708 34.1293 29.196 32.3924 28.1632 30.989C27.1305 29.5855 25.6135 28.6155 23.9062 28.267ZM22.5 39.375C21.6656 39.375 20.85 39.1276 20.1562 38.664C19.4624 38.2005 18.9217 37.5416 18.6024 36.7707C18.2831 35.9998 18.1995 35.1516 18.3623 34.3332C18.5251 33.5149 18.9269 32.7631 19.5169 32.1731C20.1069 31.5831 20.8586 31.1813 21.677 31.0186C22.4953 30.8558 23.3436 30.9393 24.1144 31.2586C24.8853 31.5779 25.5442 32.1187 26.0078 32.8124C26.4713 33.5062 26.7188 34.3219 26.7188 35.1562C26.7176 36.2748 26.2728 37.3472 25.4819 38.1381C24.6909 38.9291 23.6185 39.3739 22.5 39.375Z" fill="black"/>
</svg>
