<svg width="95" height="95" viewBox="0 0 95 95" fill="none" xmlns="http://www.w3.org/2000/svg">
<path d="M68.2812 5.9375L73.0105 14.8438L83.125 16.0728L75.7031 22.7614L77.1875 32.6562L68.2812 27.0898L59.375 32.6562L60.8594 22.7614L53.4375 16.0728L63.8281 14.8438L68.2812 5.9375Z" fill="black"/>
<path d="M67.4411 39.3328L61.6877 37.8544C60.6564 41.8273 58.4707 45.4054 55.4067 48.1366C52.3428 50.8679 48.5381 52.6298 44.4733 53.1997C40.4085 53.7696 36.2659 53.1219 32.569 51.3386C28.8721 49.5552 25.7867 46.7161 23.7026 43.18C21.6185 39.6439 20.6292 35.5694 20.8597 31.4713C21.0902 27.3733 22.5301 23.4354 24.9976 20.1553C27.4651 16.8752 30.8494 14.4 34.7229 13.0425C38.5965 11.6849 42.7855 11.5058 46.7608 12.528L48.2422 6.77749C42.4472 5.27011 36.3136 5.75529 30.8276 8.15502C25.3416 10.5548 20.8219 14.7296 17.9953 20.0083C15.1687 25.2871 14.1993 31.363 15.2431 37.2592C16.2869 43.1555 19.2831 48.5294 23.75 52.517V89.0623L41.5625 77.1873L59.375 89.0623V52.5705C63.3179 49.0562 66.1258 44.4481 67.4411 39.3328ZM53.4375 77.9681L41.5625 70.0505L29.6875 77.9681V56.5545C33.3719 58.4054 37.4373 59.3708 41.5604 59.3739C45.6835 59.377 49.7504 58.4177 53.4375 56.5723V77.9681Z" fill="black"/>
</svg>
