<svg width="100" height="100" viewBox="0 0 100 100" fill="none" xmlns="http://www.w3.org/2000/svg">
<path d="M33.3335 91.6668H66.6668C78.4502 91.6668 84.346 91.6668 88.0043 88.0084C91.6668 84.3418 91.6668 78.4543 91.6668 66.6668V62.5001C91.6668 50.7168 91.6668 44.8251 88.0043 41.1626C84.8043 37.9626 79.896 37.5584 70.8335 37.5084M29.1668 37.5084C20.1043 37.5584 15.196 37.9626 11.996 41.1626C8.3335 44.8251 8.3335 50.7168 8.3335 62.5001V66.6668C8.3335 78.4543 8.3335 84.3459 11.996 88.0084C13.246 89.2584 14.7543 90.0793 16.6668 90.6209" stroke="black" stroke-width="1.5" stroke-linecap="round"/>
<path d="M50 8.33337V62.5M50 62.5L37.5 47.9167M50 62.5L62.5 47.9167" stroke="black" stroke-width="1.5" stroke-linecap="round" stroke-linejoin="round"/>
</svg>
