<svg width="100" height="100" viewBox="0 0 100 100" fill="none" xmlns="http://www.w3.org/2000/svg">
<path d="M84.4583 19.75C87.0813 22.1333 89.0431 25.1548 90.1528 28.5206C91.2626 31.8865 91.4827 35.4822 90.7917 38.9583C90.2125 43.4635 88.2634 47.6821 85.2079 51.0431C82.1524 54.4041 78.1381 56.7454 73.7083 57.75C69.8736 58.8361 65.8112 58.8264 61.9817 57.7217C58.1522 56.617 54.7088 54.4617 52.0417 51.5C56.4202 53.1973 61.2128 53.5163 65.7776 52.4142C70.3425 51.312 74.4616 48.8415 77.5833 45.3333C81.1594 42.2478 83.7266 38.1595 84.9523 33.5981C86.1781 29.0368 86.006 24.2124 84.4583 19.75ZM51.3333 48.0416C53.1264 43.6335 53.5 38.7759 52.4021 34.1454C51.3042 29.515 48.7896 25.3422 45.2083 22.2083C42.1344 18.6181 38.0375 16.0521 33.4657 14.8533C28.8939 13.6545 24.0651 13.8801 19.625 15.5C22.1507 12.8138 25.3236 10.8209 28.84 9.71198C32.3564 8.60307 36.0986 8.4153 39.7083 9.16663C44.1469 10.0043 48.2405 12.1303 51.4786 15.2794C54.7167 18.4286 56.9558 22.4615 57.9167 26.875C58.791 30.67 58.6423 34.6292 57.4857 38.348C56.329 42.0668 54.206 45.4119 51.3333 48.0416ZM80 84.5416C77.5628 87.2219 74.4588 89.2084 71.0042 90.299C67.5496 91.3895 63.8677 91.5451 60.3333 90.75C55.9834 90.0525 51.94 88.0748 48.7192 85.0691C45.4983 82.0635 43.2461 78.1663 42.25 73.875C41.1578 70.0348 41.1479 65.9675 42.2214 62.122C43.2949 58.2766 45.41 54.8025 48.3333 52.0833C46.692 56.4796 46.4144 61.2687 47.5368 65.8252C48.6592 70.3818 51.1295 74.494 54.625 77.625C57.6793 81.1814 61.7291 83.7411 66.252 84.9739C70.7749 86.2068 75.5635 86.0562 80 84.5416ZM15.7917 80.75C12.7388 77.9869 10.54 74.4083 9.45472 70.4363C8.36944 66.4644 8.44298 62.2648 9.66666 58.3333C10.7551 53.9264 13.1751 49.9621 16.5972 46.9798C20.0194 43.9975 24.2774 42.1423 28.7917 41.6666C32.2805 41.0718 35.8633 41.3756 39.2021 42.5493C42.541 43.723 45.5258 45.7279 47.875 48.375C43.3057 46.608 38.2933 46.3378 33.5605 47.6034C28.8277 48.8689 24.6192 51.6049 21.5417 55.4166C18.1122 58.5477 15.7231 62.6533 14.6953 67.1819C13.6674 71.7105 14.05 76.4452 15.7917 80.75ZM50.9583 50C55.4313 48.6773 59.3462 45.9223 62.1013 42.1585C64.8565 38.3946 66.2994 33.8302 66.2083 29.1666C66.9398 24.1326 66.0501 18.9964 63.6679 14.5018C61.2858 10.0071 57.5349 6.38737 52.9583 4.16663C56.598 4.01445 60.2139 4.81928 63.4454 6.50083C66.6769 8.18238 69.411 10.6819 71.375 13.75C74.0275 17.2732 75.544 21.5208 75.7226 25.9273C75.9013 30.3338 74.7336 34.6902 72.375 38.4166C70.2927 42.1986 67.1663 45.3017 63.3689 47.3556C59.5714 49.4094 55.2632 50.3274 50.9583 50ZM49 50C44.474 51.3676 40.5224 54.1835 37.7522 58.015C34.9821 61.8466 33.5467 66.4818 33.6667 71.2083C33.0224 76.1211 33.9644 81.1112 36.3554 85.4509C38.7464 89.7907 42.4613 93.2531 46.9583 95.3333C42.7917 96.7916 34.875 93.4166 30.2917 88.3333C27.2025 84.9336 25.2043 80.6853 24.5552 76.1378C23.9062 71.5904 24.6362 66.9527 26.651 62.8246C28.6657 58.6964 31.8724 55.2675 35.8566 52.9813C39.8409 50.695 44.4193 49.6565 49 50ZM95.8333 52.625C96.0082 56.349 95.1945 60.053 93.4747 63.3608C91.755 66.6685 89.1905 69.4623 86.0416 71.4583C82.5005 74.0656 78.2533 75.5406 73.8582 75.6893C69.4632 75.838 65.126 74.6536 61.4167 72.2916C57.9128 70.3235 55.02 67.4266 53.0571 63.9198C51.0942 60.413 50.1372 56.4324 50.2917 52.4166C52.1669 56.8014 55.361 60.4934 59.4305 62.9799C63.4999 65.4664 68.2426 66.6239 73 66.2916C77.753 66.6609 82.5033 65.5441 86.5938 63.0958C90.6844 60.6474 93.9131 56.9884 95.8333 52.625ZM4.16666 46.7916C4.03539 43.0196 4.93127 39.2828 6.75861 35.9804C8.58595 32.678 11.2761 29.934 14.5417 28.0416C18.1 25.6111 22.299 24.2901 26.6079 24.2456C30.9169 24.2011 35.1423 25.4351 38.75 27.7916C42.1696 29.8032 44.9842 32.6988 46.8979 36.1742C48.8115 39.6496 49.7536 43.5763 49.625 47.5416C47.7625 43.2294 44.6332 39.5852 40.652 37.0923C36.6709 34.5995 32.026 33.3757 27.3333 33.5833C22.5942 33.2189 17.8546 34.2824 13.7255 36.6366C9.59635 38.9908 6.26701 42.5278 4.16666 46.7916Z" fill="black"/>
</svg>
