<svg width="100" height="100" viewBox="0 0 100 100" fill="none" xmlns="http://www.w3.org/2000/svg">
<path d="M62.5 87.5H25C21.6848 87.5 18.5054 86.183 16.1612 83.8388C13.817 81.4946 12.5 78.3152 12.5 75V70.8333H54.1667V79.1667C54.1667 81.3768 55.0446 83.4964 56.6074 85.0592C58.1702 86.622 60.2899 87.5 62.5 87.5ZM62.5 87.5C64.7101 87.5 66.8297 86.622 68.3926 85.0592C69.9554 83.4964 70.8333 81.3768 70.8333 79.1667V20.8333C70.8333 19.1852 71.3221 17.574 72.2378 16.2036C73.1534 14.8332 74.4549 13.7651 75.9776 13.1343C77.5004 12.5036 79.1759 12.3386 80.7924 12.6601C82.4089 12.9817 83.8938 13.7753 85.0592 14.9408C86.2247 16.1062 87.0183 17.5911 87.3399 19.2076C87.6614 20.8241 87.4964 22.4996 86.8657 24.0224C86.2349 25.5451 85.1668 26.8466 83.7964 27.7622C82.426 28.6779 80.8148 29.1667 79.1667 29.1667H70.8333M79.1667 12.5H33.3333C30.0181 12.5 26.8387 13.817 24.4945 16.1612C22.1503 18.5054 20.8333 21.6848 20.8333 25V70.8333M37.5 29.1667H54.1667M37.5 45.8333H54.1667" stroke="black" stroke-width="2" stroke-linecap="round" stroke-linejoin="round"/>
</svg>
