<svg width="100" height="100" viewBox="0 0 100 100" fill="none" xmlns="http://www.w3.org/2000/svg">
<path d="M88.2081 8.58331C85.2214 8.06887 82.1971 7.80406 79.1664 7.79164C68.8263 7.78317 58.7018 10.7482 49.9998 16.3333C41.2754 10.8215 31.1525 7.92927 20.8331 7.99998C17.8025 8.0124 14.7781 8.2772 11.7914 8.79164C10.8131 8.9603 9.9272 9.47272 9.29317 10.2366C8.65914 11.0005 8.31868 11.9657 8.33312 12.9583V62.9583C8.32419 63.5705 8.45031 64.1772 8.70249 64.7351C8.95467 65.2931 9.32672 65.7886 9.79217 66.1864C10.2576 66.5842 10.805 66.8746 11.3954 67.0368C11.9858 67.199 12.6047 67.2291 13.2081 67.125C19.179 66.0912 25.2965 66.2627 31.2001 67.6295C37.1037 68.9962 42.674 71.5306 47.5831 75.0833L48.0831 75.375H48.5414C49.0035 75.5675 49.4992 75.6666 49.9998 75.6666C50.5004 75.6666 50.996 75.5675 51.4581 75.375H51.9165L52.4165 75.0833C57.2913 71.4512 62.8457 68.8347 68.7504 67.3889C74.6551 65.9432 80.79 65.6976 86.7914 66.6666C87.3948 66.7708 88.0137 66.7407 88.6041 66.5785C89.1945 66.4163 89.7419 66.1259 90.2074 65.7281C90.6728 65.3303 91.0449 64.8348 91.2971 64.2768C91.5493 63.7189 91.6754 63.1122 91.6664 62.5V12.5C91.6231 11.5506 91.2565 10.6446 90.6275 9.93222C89.9985 9.21983 89.1448 8.74388 88.2081 8.58331ZM45.8331 63.9583C38.1243 59.9028 29.5436 57.7863 20.8331 57.7916H16.6664V16.125C18.0542 16.045 19.4454 16.045 20.8331 16.125C29.7222 16.1152 38.4173 18.7237 45.8331 23.625V63.9583ZM83.3331 57.9583H79.1664C70.456 57.9529 61.8753 60.0695 54.1665 64.125V23.625C61.5822 18.7237 70.2773 16.1152 79.1664 16.125C80.5542 16.045 81.9454 16.045 83.3331 16.125V57.9583ZM88.2081 75.25C85.2214 74.7355 82.1971 74.4707 79.1664 74.4583C68.8263 74.4498 58.7018 77.4149 49.9998 83C41.2978 77.4149 31.1733 74.4498 20.8331 74.4583C17.8025 74.4707 14.7781 74.7355 11.7914 75.25C11.2491 75.336 10.729 75.5285 10.2613 75.8162C9.79354 76.104 9.38729 76.4814 9.06589 76.9267C8.7445 77.372 8.51431 77.8764 8.38855 78.411C8.26279 78.9456 8.24395 79.4998 8.33312 80.0416C8.54486 81.1237 9.17683 82.0777 10.0906 82.6946C11.0043 83.3116 12.1254 83.5413 13.2081 83.3333C19.179 82.2995 25.2965 82.471 31.2001 83.8378C37.1037 85.2046 42.674 87.7389 47.5831 91.2916C48.2888 91.7941 49.1335 92.0641 49.9998 92.0641C50.866 92.0641 51.7108 91.7941 52.4165 91.2916C57.3255 87.7389 62.8959 85.2046 68.7995 83.8378C74.7031 82.471 80.8205 82.2995 86.7914 83.3333C87.8742 83.5413 88.9952 83.3116 89.909 82.6946C90.8227 82.0777 91.4547 81.1237 91.6664 80.0416C91.7556 79.4998 91.7368 78.9456 91.611 78.411C91.4853 77.8764 91.2551 77.372 90.9337 76.9267C90.6123 76.4814 90.206 76.104 89.7383 75.8162C89.2705 75.5285 88.7505 75.336 88.2081 75.25Z" fill="black" fill-opacity="0.75"/>
</svg>
